<?xml version="1.0" encoding="UTF-8" standalone="no" ?>
<!DOCTYPE svg PUBLIC "-//W3C//DTD SVG 1.1//EN" "http://www.w3.org/Graphics/SVG/1.1/DTD/svg11.dtd">
<svg xmlns="http://www.w3.org/2000/svg" xmlns:xlink="http://www.w3.org/1999/xlink" version="1.1" width="1080" height="1080" viewBox="0 0 1080 1080" xml:space="preserve">
<desc>Created with Fabric.js 5.2.4</desc>
<defs>
</defs>
<g transform="matrix(1 0 0 1 540 540)" id="28627601-cc08-4879-9286-c690d8944a5e"  >
<rect style="stroke: none; stroke-width: 1; stroke-dasharray: none; stroke-linecap: butt; stroke-dashoffset: 0; stroke-linejoin: miter; stroke-miterlimit: 4; fill: rgb(255,255,255); fill-rule: nonzero; opacity: 1; visibility: hidden;" vector-effect="non-scaling-stroke"  x="-540" y="-540" rx="0" ry="0" width="1080" height="1080" />
</g>
<g transform="matrix(1 0 0 1 540 540)" id="a70f9c87-c079-4349-bd6a-0924b36cba27"  >
</g>
<g transform="matrix(1 0 0 1 540 540)"  >
<g style="" vector-effect="non-scaling-stroke"   >
		<g transform="matrix(0.13 0 0 -0.13 -124.73 -8.27)"  >
<path style="stroke: none; stroke-width: 1; stroke-dasharray: none; stroke-linecap: butt; stroke-dashoffset: 0; stroke-linejoin: miter; stroke-miterlimit: 4; fill: rgb(164,39,140); fill-rule: nonzero; opacity: 1;" vector-effect="non-scaling-stroke"  transform=" translate(-1460.4, -2801.75)" d="M 1174 3492 C 930 3407 646 3072 444 2628 C 417 2569 394 2525 392 2529 C 388 2541 446 2770 476 2859 C 490 2900 519 2975 540 3026 C 585 3130 587 3140 564 3140 C 530 3140 413 2834 365 2617 C 337 2487 298 2227 302 2195 C 304 2184 311 2175 319 2175 C 329 2175 342 2210 360 2285 C 456 2673 742 3149 1003 3355 C 1089 3424 1183 3474 1243 3485 C 1323 3500 1359 3436 1340 3313 C 1319 3178 1275 3065 1107 2715 C 986 2463 943 2361 917 2270 C 891 2176 889 2153 906 2139 C 919 2129 930 2136 978 2187 C 1048 2260 1107 2308 1181 2349 C 1267 2397 1271 2395 1284 2293 C 1300 2180 1357 2149 1487 2184 C 1515 2192 1564 2209 1595 2224 C 1627 2238 1653 2250 1655 2250 C 1656 2250 1656 2229 1656 2204 C 1655 2166 1660 2154 1683 2134 C 1698 2121 1717 2110 1725 2110 C 1785 2110 1828 2169 1810 2225 C 1804 2244 1801 2269 1805 2280 C 1815 2310 1857 2357 1906 2390 L 1949 2420 L 1935 2386 C 1904 2313 1926 2243 2001 2176 C 2067 2116 2121 2096 2220 2095 C 2295 2095 2313 2099 2372 2127 C 2502 2188 2590 2310 2613 2460 C 2619 2498 2621 2533 2617 2537 C 2613 2540 2592 2538 2571 2531 C 2512 2514 2474 2462 2460 2381 C 2429 2201 2325 2094 2216 2130 C 2139 2155 2064 2281 2053 2403 C 2046 2471 2038 2474 1935 2435 C 1839 2399 1792 2374 1730 2325 C 1632 2249 1491 2190 1408 2190 C 1359 2190 1344 2214 1335 2302 C 1326 2383 1307 2405 1249 2404 C 1206 2402 1082 2334 1007 2270 L 967 2236 L 974 2265 C 990 2329 1057 2485 1175 2730 C 1352 3099 1391 3208 1393 3346 C 1395 3429 1378 3462 1319 3492 C 1276 3514 1239 3514 1174 3492 z" stroke-linecap="round" />
</g>
		<g transform="matrix(0.13 0 0 -0.13 158.41 31.9)"  >
<path style="stroke: none; stroke-width: 1; stroke-dasharray: none; stroke-linecap: butt; stroke-dashoffset: 0; stroke-linejoin: miter; stroke-miterlimit: 4; fill: rgb(164,39,140); fill-rule: nonzero; opacity: 1;" vector-effect="non-scaling-stroke"  transform=" translate(-3583.94, -2500.46)" d="M 2680 3006 L 2680 2981 L 2913 2978 C 3128 2975 3148 2973 3185 2953 C 3268 2909 3303 2844 3303 2735 C 3303 2694 3297 2650 3288 2630 C 3269 2588 3218 2534 3176 2513 C 3139 2495 3100 2460 3100 2447 C 3100 2442 3115 2421 3133 2400 C 3150 2380 3194 2315 3230 2255 C 3327 2096 3374 2040 3445 2005 L 3505 1975 L 3777 1972 C 4079 1968 4119 1973 4227 2024 C 4318 2068 4389 2139 4434 2232 C 4544 2459 4485 2622 4262 2709 C 4232 2721 4210 2727 4212 2723 C 4264 2620 4286 2527 4275 2455 C 4257 2338 4211 2267 4126 2223 C 4081 2199 4061 2196 3948 2192 L 3820 2188 L 3820 2233 C 3820 2309 3801 2374 3768 2415 C 3732 2458 3671 2489 3623 2490 L 3590 2490 L 3588 2258 L 3585 2025 L 3528 2083 C 3477 2134 3250 2459 3250 2481 C 3250 2486 3265 2497 3283 2506 C 3343 2537 3398 2590 3424 2642 C 3480 2754 3448 2904 3355 2971 C 3284 3022 3224 3030 2938 3030 L 2680 3030 L 2680 3006 z" stroke-linecap="round" />
</g>
		<g transform="matrix(0.13 0 0 -0.13 205.15 -11.56)"  >
<path style="stroke: none; stroke-width: 1; stroke-dasharray: none; stroke-linecap: butt; stroke-dashoffset: 0; stroke-linejoin: miter; stroke-miterlimit: 4; fill: rgb(164,39,140); fill-rule: nonzero; opacity: 1;" vector-effect="non-scaling-stroke"  transform=" translate(-3934.5, -2826.42)" d="M 3406 2979 C 3440 2917 3487 2875 3560 2841 C 3613 2817 3624 2816 3875 2809 C 4098 2803 4146 2799 4208 2781 C 4304 2753 4384 2712 4443 2660 C 4469 2637 4490 2621 4490 2623 C 4490 2626 4479 2660 4466 2699 C 4409 2866 4298 2971 4133 3014 C 4083 3027 4008 3030 3725 3030 L 3379 3030 L 3406 2979 z" stroke-linecap="round" />
</g>
		<g transform="matrix(0.13 0 0 -0.13 -3.65 6.39)"  >
<path style="stroke: none; stroke-width: 1; stroke-dasharray: none; stroke-linecap: butt; stroke-dashoffset: 0; stroke-linejoin: miter; stroke-miterlimit: 4; fill: rgb(164,39,140); fill-rule: nonzero; opacity: 1;" vector-effect="non-scaling-stroke"  transform=" translate(-2368.5, -2691.82)" d="M 2186 2901 C 2115 2877 2030 2821 1990 2770 C 1940 2707 1900 2610 1893 2535 L 1887 2467 L 1919 2473 C 1961 2482 2007 2514 2024 2549 C 2032 2564 2044 2605 2050 2640 C 2065 2725 2089 2778 2135 2829 C 2243 2948 2391 2869 2445 2663 C 2453 2632 2460 2591 2460 2573 C 2460 2555 2462 2540 2464 2540 C 2466 2540 2499 2549 2536 2561 C 2642 2593 2753 2655 2804 2710 C 2844 2753 2850 2765 2850 2803 C 2850 2880 2794 2917 2732 2880 C 2695 2857 2684 2823 2699 2780 C 2711 2745 2706 2727 2673 2683 C 2642 2641 2553 2578 2564 2606 C 2600 2693 2596 2724 2542 2795 C 2464 2898 2314 2943 2186 2901 z" stroke-linecap="round" />
</g>
		<g transform="matrix(0.13 0 0 -0.13 76.43 34.81)"  >
<path style="stroke: none; stroke-width: 1; stroke-dasharray: none; stroke-linecap: butt; stroke-dashoffset: 0; stroke-linejoin: miter; stroke-miterlimit: 4; fill: rgb(164,39,140); fill-rule: nonzero; opacity: 1;" vector-effect="non-scaling-stroke"  transform=" translate(-2969.07, -2478.62)" d="M 2922 2534 C 2893 2514 2891 2451 2920 2425 C 2947 2400 3000 2403 3022 2431 C 3047 2461 3044 2497 3015 2525 C 2987 2554 2954 2557 2922 2534 z" stroke-linecap="round" />
</g>
</g>
</g>
<g transform="matrix(NaN NaN NaN NaN 0 0)"  >
<g style=""   >
</g>
</g>
</svg>